<svg width="1440" height="1024" viewBox="0 0 1440 1024" fill="none" xmlns="http://www.w3.org/2000/svg">
<path d="M230.462 498.281C240.611 536.491 242.402 570.323 223.894 586.045C205.386 601.568 166.778 598.981 132.149 577.089C97.3223 555.198 66.4754 513.804 75.6299 476.986C84.7845 439.97 133.941 407.531 167.972 412.506C201.804 417.482 220.312 460.07 230.462 498.281Z" fill="white"/>
<path d="M1346.72 811.46C1351.84 850.443 1285.32 889.913 1242.93 907.699C1200.78 925.485 1182.51 921.83 1171.3 912.572C1160.09 903.557 1155.46 888.939 1159.36 851.661C1163.26 814.384 1175.44 754.448 1220.03 743.728C1264.61 733.251 1341.6 772.234 1346.72 811.46Z" fill="white"/>
<path d="M1370.47 113.015C1383.07 129.415 1390.87 149.015 1387.07 166.015C1383.27 183.015 1367.77 197.415 1349.07 207.115C1330.47 216.815 1308.67 221.815 1290.27 214.915C1271.87 207.915 1256.87 188.915 1253.67 169.015C1250.47 149.015 1259.07 128.115 1272.57 111.415C1286.17 94.8147 1304.67 82.5147 1322.57 83.0147C1340.57 83.4147 1357.97 96.6147 1370.47 113.015Z" fill="white"/>
</svg>
