<svg xmlns="http://www.w3.org/2000/svg" data-name="Layer 1" viewBox="0 0 886 623"><defs/><path fill="#3f3d56" d="M462 348h-62v2h10v19h2v-19h37v19h2v-19h11v-2zM484 300h-15v16h7v53h2v-53h6v-16zM401 343h61v2h-61zM401 338h61v2h-61zM401 333h61v2h-61z"/><path fill="#3f3d56" d="M619 375h-2a170 170 0 00-340 0h-2a172 172 0 01344 0z"/><circle cx="161.4" cy="161.4" r="161.4" fill="#fff"/><path d="M281 54A161 161 0 0113 224 161 161 0 10281 54z" opacity=".2"/><path fill="#3f3d56" d="M162 161l8 458h-17l9-458z"/><path fill="#3f3d56" d="M187 404l4 7-27 14-4-7z"/><circle cx="755.3" cy="229.8" r="130.6" fill="#fff"/><path d="M852 143a131 131 0 01-217 138 131 131 0 10217-138z" opacity=".2"/><path fill="#3f3d56" d="M756 230l6 370h-13l7-370z"/><path fill="#3f3d56" d="M776 426l3 6-21 11-3-6z"/><circle cx="369.9" cy="321.7" r="20.6" fill="#fff"/><path d="M385 308a21 21 0 01-34 22 21 21 0 1034-22z" opacity=".2"/><path fill="#3f3d56" d="M370 322l1 58h-2l1-58z"/><path fill="#3f3d56" d="M373 352v1l-3 2-1-1z"/><circle cx="559.9" cy="255.4" r="52.6" fill="#fff"/><path d="M599 220a53 53 0 01-88 56 53 53 0 1088-56z" opacity=".2"/><path fill="#3f3d56" d="M560 255l3 150h-6l3-150z"/><path fill="#3f3d56" d="M568 334l1 3-9 4-1-2zM198 596s0-14 14-13"/><circle cx="193.6" cy="575.5" r="7" fill="#fff"/><path fill="#3f3d56" d="M192 587h2v14h-2zM247 563s1-14 15-12"/><circle cx="242.9" cy="542.9" r="7" fill="#fff"/><path fill="#3f3d56" d="M242 555h2v14h-2zM396 453s0-11 11-10"/><circle cx="392.5" cy="436.6" r="5.6" fill="#fff"/><path fill="#3f3d56" d="M392 446h2v11h-2zM613 417s0-11 11-10"/><circle cx="609.6" cy="401.1" r="5.6" fill="#fff"/><path fill="#3f3d56" d="M609 411h2v11h-2zM405 483s1-12 12-10"/><circle cx="402.3" cy="466.2" r="5.6" fill="#fff"/><path fill="#3f3d56" d="M401 476h2v11h-2zM382 504s0-11 11-10"/><circle cx="378.7" cy="488" r="5.6" fill="#fff"/><path fill="#3f3d56" d="M378 497h2v11h-2zM646 436s1-11 12-10"/><circle cx="643.1" cy="419.9" r="5.6" fill="#fff"/><path fill="#3f3d56" d="M642 429h2v11h-2zM327 461s0-11 11-10"/><circle cx="323.4" cy="444.5" r="5.6" fill="#fff"/><path fill="#3f3d56" d="M323 454h2v11h-2zM583 405s1-12 12-10"/><circle cx="580" cy="388.3" r="5.6" fill="#fff"/><path fill="#3f3d56" d="M579 398h2v11h-2zM112 599s0-14 14-13"/><circle cx="107.7" cy="578.4" r="7" fill="#fff"/><path fill="#3f3d56" d="M107 590h2v14h-2zM792 595s0-14 14-13"/><circle cx="787.7" cy="574.5" r="7" fill="#fff"/><path fill="#3f3d56" d="M787 586h2v14h-2zM734 561s1-14 15-12"/><circle cx="730.4" cy="540.9" r="7" fill="#fff"/><path fill="#3f3d56" d="M729 553h2v14h-2zM726 612s1-14 15-13"/><circle cx="722.5" cy="591.2" r="7" fill="#fff"/><path fill="#3f3d56" d="M721 603h2v14h-2z"/><path fill="#e6e6e6" d="M123 622s311-81 308-165c-6-23-43-29-43-29s-89-12-40-41 180-22 180-22-136 22-76 34c49 3 111 16 111 16s126 26 144 92 3 115 3 115z"/><path fill="#fff" d="M462 623l-2-2 5-3 1 1-4 4zM476 612l-1-1 9-8 2 2-10 7zm19-15l-1-1 9-8 1 1-9 8zm18-16l-1-1 8-8 2 1-9 8zm17-17l-2-1 8-9 2 1-8 9zm15-19l-2-1 6-10 2 1-6 10zm11-21l-2-1a69 69 0 004-11l2 1a71 71 0 01-4 11zm3-24a47 47 0 00-2-11l2-1a49 49 0 012 12zm-6-22a60 60 0 00-7-10l2-1a62 62 0 017 10zm-15-18a108 108 0 00-9-7l1-2a110 110 0 019 8zm-19-14l-11-5 1-2 11 6zm-22-11l-11-4 1-2 11 5zm-22-8l-11-4v-2l12 4zm-23-8l-11-4 1-2 11 4zm-23-7l-11-4 1-1 11 3zm-23-7a95 95 0 01-11-5l1-2a93 93 0 0011 5zm-15-13l-1-2 11-5 1 2c-6 1-9 3-11 5zm22-9v-2l11-2 1 2-12 2zm23-5v-2l12-2v2l-12 2zm24-4v-2l11-2 1 2-12 2zM484 370v-2l5-1 1 2-6 1z"/><path fill="#3f3d56" d="M528 167l9-7c-7-1-10 3-11 6-5-2-11 1-11 1l18 6a14 14 0 00-5-6zM359 223l9-7c-7-1-9 3-11 6-5-2-11 1-11 1l18 7a14 14 0 00-5-7zM404 107l9-7c-7-1-10 3-11 6-6-3-12 0-12 0l18 7a14 14 0 00-4-6z"/><path fill="#9e616a" d="M503 430s-8 0-9 5-2 58-2 64l1 5s-1 13 3 13 3-14 3-14l4-53zM537 430s8 0 8 5 3 58 2 64l-1 5s2 13-2 13-4-14-4-14l-3-53z"/><path fill="#2f2e41" d="M501 613h-3a8 8 0 00-8 8h21v-10h-10zM535 613h3a8 8 0 018 8h-21v-10h10z"/><circle cx="516.1" cy="409" r="11.4" fill="#9e616a"/><path fill="#9e616a" d="M513 415s-1 15-3 16l19-1s-7-10-6-14-10-1-10-1z"/><path fill="#2f2e41" d="M539 430s-24-10-40 0c0 0-3 10 0 16s7 19 3 29 0 5 0 5-6 24-7 44 3 88 5 88 11 2 12 0l7-92s3 93 5 93 10 0 11-2 13-87 9-104l-7-26s5-3 4-5-8-21-5-24 3-22 3-22z"/><circle cx="523.3" cy="402.2" r="18.4" fill="#2f2e41"/><path fill="#2f2e41" d="M535 393a12 12 0 01-10-14 12 12 0 0024 6v-1a12 12 0 01-14 9z"/><circle cx="535.5" cy="386.4" r="9" fill="#2f2e41"/></svg>