<svg xmlns="http://www.w3.org/2000/svg" data-name="Layer 1" viewBox="0 0 1076 647"><defs/><path fill="#d0cde1" d="M74 607l64-91-64 101v10H61l5-134 1-13L0 380l67 90v3l4-101-57-103 57 86 3-210 1 166 55-66-55 80v90l50-87c-63 127-49 82-50 150l73-121-73 139zM1045 619l26-38-26 43v4h-6l2-56 1-6-28-41 28 37v2l1-42-23-43 23 35 2-87v69l23-28-23 34v37l21-36c-26 53-20 34-21 63l31-51-31 58z"/><ellipse cx="536" cy="625.9" fill="#d0cde1" rx="536" ry="21"/><path fill="#3f3d56" d="M184 248h612v365H184z"/><path fill="#fff" d="M335 248a146 146 0 01-146 144h-5V248zM520 613h-58a31 31 0 0158 0zM796 424v123a62 62 0 010-123z"/><rect width="422.1" height="36.1" x="280" y="381" fill="#fff" rx="18"/><rect width="422.1" height="36.1" x="280" y="452" fill="#fff" rx="18"/><rect width="148" height="36.1" x="554" y="523" fill="#fff" rx="18"/><path fill="#a0616a" d="M893 112s17 7 18 28-5 82-5 82 21 29 5 38-18-34-18-34l-19-89s12-26 19-25zM721 181s-40 26-42 6 12-101 12-101 2-35 22-26-6 37-6 37l3 66 19-1z"/><path fill="#2f2e41" d="M786 206s-124-46-117 7 38 121 38 121l11 17h24l-15-96s53 30 69 25c0 0 20 138 28 148s20 135 20 135l13 15h23V367s40-131 9-137-103-24-103-24z"/><path fill="#2f2e41" d="M715 339s-5-10-15 0-31 23-31 23-49 11-10 20 44 0 44 0l12 4c5 2 42-5 42-10s-12-39-17-34-25-3-25-3zM858 568s-13-11-17-8-20 25-20 25-45 35-4 41 39-10 39-10h13c2 0 23-9 23-13s-11-38-14-35-20 0-20 0z"/><circle cx="733.2" cy="44.8" r="31.8" fill="#a0616a"/><path fill="#a0616a" d="M756 41s24 21 41 21-25 38-25 38l-36-33z"/><path fill="#575a89" d="M765 100l-1-7s19-33 24-36 10-3 10-3 18-19 39-9 69 76 69 76-34 2-30 29c0 0 35 89 25 90s-37-5-66 8-42 4-42 4l-15-48s-28-16-27-30l-41 18 4-35 25-28s-5-4 26-29z"/><path fill="#2f2e41" d="M704 48a12 12 0 01-5 3c-1 1-4 0-4-1l1-2-4-3 2-2-4-3 3-2-5-4c6-10 13-21 23-27s24-10 34-3c6 3 9 8 12 14 6 11 12 22 13 34-4-3-10-5-14-9a28 28 0 00-5-5c-4-2-9-2-13-3s-7-3-9-5c-4-3-4-2-7 1l-18 17z"/></svg>